<svg id="Capa_1" data-name="Capa 1" xmlns="http://www.w3.org/2000/svg" viewBox="0 0 41.2 34.46"><defs><style>.cls-1{fill:#ede4e4;}</style></defs><title>cart-icon</title><path class="cls-1" d="M41,8.55c-.45-1.2-1.45-1.78-3-1.78h0c-8.92,0-17.83,0-26.75,0h0c-.5,0-.64-.1-.74-.53-.24-1-.54-2-.88-3.08A4.39,4.39,0,0,0,5.39,0H1.33A1.34,1.34,0,0,0,.27.34,1,1,0,0,0,0,1.11c0,.71.5,1.08,1.37,1.06h3.5A2.44,2.44,0,0,1,7.63,4.26L9.17,9.64Q11,16,12.82,22.37A4.51,4.51,0,0,0,17.6,26H33a4.41,4.41,0,0,0,4.51-3.21c1.25-4.15,2.46-8.34,3.62-12.44A3.1,3.1,0,0,0,41,8.55ZM38.84,10.4l-.1.36q-1.62,5.53-3.25,11.08a2.34,2.34,0,0,1-2.55,1.94H17.42a2.25,2.25,0,0,1-2.4-1.7q-1.42-4.92-2.83-9.85l-.9-3.14s0-.07,0-.11H37.81c.66,0,1,.07,1.13.24S39,9.75,38.84,10.4Z"/><path class="cls-1" d="M18.91,27.17a3.61,3.61,0,0,0-2.58,1.09,3.63,3.63,0,0,0,2.59,6.2h0a3.65,3.65,0,0,0,0-7.29Zm0,5.08a1.4,1.4,0,0,1-1.43-1.39,1.42,1.42,0,0,1,.42-1.06,1.31,1.31,0,0,1,1-.43,1.44,1.44,0,1,1,0,2.88h0Z"/><path class="cls-1" d="M30.86,27.17a3.57,3.57,0,0,0-2.56,1,3.62,3.62,0,0,0-1.12,2.56,3.68,3.68,0,0,0,1.05,2.64,3.57,3.57,0,0,0,2.57,1.07h0a3.65,3.65,0,0,0,.05-7.29Zm0,5.08h0a1.43,1.43,0,0,1-1-.43,1.34,1.34,0,0,1-.42-1,1.49,1.49,0,0,1,1.44-1.44h0a1.48,1.48,0,0,1,1,.43,1.43,1.43,0,0,1-1,2.45Z"/></svg>