<svg id="Capa_1" data-name="Capa 1" xmlns="http://www.w3.org/2000/svg" viewBox="0 0 28.08 37.81"><defs><style>.cls-1{fill:#cd975b;}.cls-2{fill:#fff;opacity:0.6;}</style></defs><title>deco1</title><path class="cls-1" d="M0,38.1V18.85A22.28,22.28,0,0,1,28.08,38.1Z" transform="translate(0 -0.29)"/><path class="cls-2" d="M16,33.67c1.29-2.18,2.71-3.84,5.09-4.24l.21.19a5.36,5.36,0,0,1-.41.79,9.73,9.73,0,0,1-4,3.46,1.59,1.59,0,0,0-1.06,1.59c0,.87-.13,1.73-.21,2.6h-.22c0-.94,0-1.87,0-2.81s0-1-1-.88a8.05,8.05,0,0,1-5.15-1.15,5,5,0,0,1,3.14-.75,21.22,21.22,0,0,1,3,1V30.69c-.06,0-.15-.07-.21,0-2,.82-3.73.23-5.46-.75a1.18,1.18,0,0,0-.74,0c-.69.15-1.38.34-2.06.51C6,28,10,23.92,13,24.16c-3,.37-4.62,2.4-5.69,5l3-2.28.14.18L7.1,29.83c2,.43,6.13-2.83,6.65-5.18l-1.4.65-.08-.12,1-.7c.47-.32.71-.67.39-1.27-.6-1.13-1.12-2.3-1.72-3.43-.47-.9-1.12-1-1.82-.24A7.81,7.81,0,0,1,2,21.18c2.24-3,5-4.19,8.77-2.81-.09-.35-.09-.5-.16-.58-1-1.22-2-2.43-3-3.65A.85.85,0,0,0,6.39,14c-.46.28-1,.48-1.39.79-1.27.94-2.8.92-4.22,1.32C.52,14,2.88,12.53,6.32,12.7c-.67-.94-1.26-1.8-1.9-2.61-.06-.07-.53.08-.73.23a4,4,0,0,1-3,1.08c-.15,0-.3-.08-.44-.12C.34,9.77,1.39,9,3.77,8.75c-1.12-2-2.06-4-1.33-6.31A11.64,11.64,0,0,1,3.37.29c.24,2.44,1.47,4.7,1,7.21-.33,1.7.8,2.87,1.79,4.1A7,7,0,0,1,7.36,5.4a3.86,3.86,0,0,1,.35,1.22A21.32,21.32,0,0,1,7,10.53,2.86,2.86,0,0,0,8,14a33.26,33.26,0,0,1,2.51,2.7,9.07,9.07,0,0,1,1.36-8l.31,0c0,1.09.08,2.2,0,3.28-.13,1.49-.4,3-.62,4.43a3.83,3.83,0,0,0,.55,2.75c.63,1,1.14,2.09,1.79,3.13A6.13,6.13,0,0,1,15,16.47c1.1-1.36,1.58-1.55,2.55-1.58A28.89,28.89,0,0,1,16.8,18c-.41,1.14-1,2.22-1.5,3.35a4.86,4.86,0,0,0-.3,4.07,25.86,25.86,0,0,1,1,3.77c.12-.57.19-.94.27-1.31a8.24,8.24,0,0,1,2.65-4.55,2.64,2.64,0,0,1,.82-.35c.07.3.28.65.18.89a22.5,22.5,0,0,1-1.47,3.24,13.37,13.37,0,0,1-1.78,2.15A2.38,2.38,0,0,0,16,31.1C16,31.86,16,32.63,16,33.67ZM2.87,20.81l3.25-1.12.08.21L3,21.08c2.24,1,5.41,0,7.42-2.4H8.77l.67-.33A5.91,5.91,0,0,0,2.87,20.81Zm8.93,7.48,3.63,1.51a13.6,13.6,0,0,0-1.06-4.89c-.47.73-.81,1.35-1.25,1.91S12.17,27.88,11.8,28.29ZM17,15.3A5.8,5.8,0,0,0,14.17,21l.8-2,.2.07-.56,2.25A14.28,14.28,0,0,0,17,15.3ZM6.24,13.19c-1.15-1-4.12.16-4.81,1.56a2.43,2.43,0,0,0-.14.66,3.06,3.06,0,0,0,.66.12c1.63,0,2.81-1.09,4.14-1.8L6,13.44l-2.36.43,0-.19Zm8.55,17.24,0-.19a2.57,2.57,0,0,1-.57-.38,2.91,2.91,0,0,0-3.44-.75,3,3,0,0,0-.57.5c.18.17.34.43.55.5a13.49,13.49,0,0,0,2.39.6A5.78,5.78,0,0,0,14.79,30.43ZM11.92,9.69l-.33-.06a8.8,8.8,0,0,0-.9,5.48l.32-.93h.1v1.39h.15ZM3.12,1.62a5.41,5.41,0,0,0,0,4.57L3,3.82h.2l.52,3.64A9.54,9.54,0,0,0,3.12,1.62Zm16.25,22a7,7,0,0,0-2.56,3.87C18.71,26.79,19.1,25.24,19.37,23.63ZM1,11.09c.77.12,2.59-.75,2.77-1.34,0-.16-.18-.52-.37-.61A2.06,2.06,0,0,0,.86,10.69l1-.93L2,9.89Zm13,22.3a3.14,3.14,0,0,0-3.64-.18c1,.84,3.2,1.19,4,.63l-1-.34,0-.11Zm3.12-.14a8.07,8.07,0,0,0,3.39-3.33A5,5,0,0,0,17.12,33.25ZM7.42,6.53l-.26,0a5.72,5.72,0,0,0-.78,4.29Z" transform="translate(0 -0.29)"/></svg>