<svg id="Capa_1" data-name="Capa 1" xmlns="http://www.w3.org/2000/svg" viewBox="0 0 28.08 34.59"><defs><style>.cls-1{fill:#cd975b;}.cls-2{fill:#fff;opacity:0.6;}</style></defs><title>deco2</title><path class="cls-1" d="M28.08,34.47V15.22A22.28,22.28,0,0,0,0,34.47Z" transform="translate(0 0.12)"/><path class="cls-1" d="M28.08,34.47V15.22A22.28,22.28,0,0,0,0,34.47Z" transform="translate(0 0.12)"/><path class="cls-2" d="M12.47,26.48q3.51-.19,7-.42c.45,0,.87-.13,1.4-.21-1.81-1-5.07-.78-9.46.5,1.68-1.48,6.48-2,9.55-1.33a1.43,1.43,0,0,1,1,.85c0,.15-.73.44-1.2.56a8.59,8.59,0,0,1-1.55.14l-5.93.21c4.57,1.44,6.22,2.93,4.89,4.27a21.77,21.77,0,0,0-3-2.33A36.25,36.25,0,0,0,11,27.08a6.64,6.64,0,0,1,1.31,7.39A16.12,16.12,0,0,1,10.39,31a21.12,21.12,0,0,1-.58-3.64L7,29.52a2.48,2.48,0,0,1,1-1.21c1.72-1.44,1.67-2.09-.27-3.46-.2-.14-.43-.27-.66-.4A6.94,6.94,0,0,1,3.65,21a2.72,2.72,0,0,1,.57-2.8l5.61,6.27c.82-2.88-.79-5.6.52-8.49a8.8,8.8,0,0,1,2.52,8c1.67-2,3.11-3.95,4.5-5.95a1.12,1.12,0,0,0,.07-.93c-.77-3.07-1.58-6.12-2.36-9.18a7.07,7.07,0,0,1-.11-1c2.25.85,3.16,2.31,4.57,6.87,1-2.43,1.75-4.87-.2-7.27-.95-1.17-2-2.3-3.07-3.42a2,2,0,0,1,0-3.11c3.25,3.1,4.89,6.31,5.14,9.81.36-.46.54-.93.85-1.36a40.6,40.6,0,0,1,2.79-3.49,3.2,3.2,0,0,1,3-.94c-1.44,2-2,4.05-4.24,5.73a10.24,10.24,0,0,0-4.08,5.73l.49.19c1.7-1.59,3.41-3.17,5.13-4.76.07.09.18.18.18.26a3.26,3.26,0,0,1-.12.75c-.56,1.82-2.35,3.21-4.27,4.57-.9.63-1.7,1.31-2.76,2.14,6.74-1.61,8.5-1.68,9.59-.4a5.46,5.46,0,0,1-1,.26,55.81,55.81,0,0,1-6,.46,5.52,5.52,0,0,0-3.94,1.23,12.76,12.76,0,0,0-1.19,1.12c-1.37,1.45-2.74,2.91-4.07,4.38a2.69,2.69,0,0,0-.38.78A6.32,6.32,0,0,0,12.47,26.48Zm-1.81-.81c2.25-2.65,1.74-5.22,0-7.82ZM21.22,11.12c2.45-1.41,5.15-4.69,5.59-6.87C23.41,6.24,22.91,8.77,21.22,11.12ZM4.78,19.75l-.54.18c0,2.38,2.86,3.77,5.33,5.31Zm13.39-3.67c.6-2.5.51-4.93-1.81-7.16ZM10.8,28c-.88,1.63.33,2.81,1.25,4C12,30.7,12,29.37,10.8,28Zm9.4-11.91.41.18L24,13.52l-.42-.16Zm5.74,2.07-.07-.4L22,18l0,.33Zm-9.24-17-.58.16,1.62,2.1.46-.12Z" transform="translate(0 0.12)"/></svg>