<svg id="Capa_1" data-name="Capa 1" xmlns="http://www.w3.org/2000/svg" viewBox="0 0 36.94 34.63"><defs><style>.cls-1{fill:#ede4e4;}</style></defs><title>home-icon</title><path class="cls-1" d="M34,16.68V31a3.34,3.34,0,0,1-3.67,3.67H6.58a3.35,3.35,0,0,1-3.69-3.72V16.66c-.38.37-.62.64-.9.88a1.14,1.14,0,0,1-1.62,0,1.14,1.14,0,0,1,0-1.68c1.12-1.15,2.27-2.28,3.41-3.42L14.44,1.83a5.34,5.34,0,0,1,8,0L36.25,15.58a4,4,0,0,1,.44.48,1.15,1.15,0,0,1-1.63,1.58C34.74,17.39,34.47,17.09,34,16.68Zm-9.8,15.64h6.11c1,0,1.38-.33,1.38-1.37,0-5.34,0-10.67,0-16a1.53,1.53,0,0,0-.4-1Q26.08,8.66,20.78,3.39a3,3,0,0,0-4.64,0c-3.5,3.5-7,7-10.49,10.51A1.67,1.67,0,0,0,5.22,15c0,5.31,0,10.62,0,15.93,0,.15,0,.29,0,.43.06.59.38,1,1,1,2.16,0,4.31,0,6.53,0v-.84c0-2.71,0-5.43,0-8.14a3.59,3.59,0,0,1,3.68-3.7h3.9a3.62,3.62,0,0,1,3.95,3.93C24.24,26.44,24.24,29.33,24.24,32.32Zm-2.32,0c0-3.08,0-6.1,0-9.12a1.26,1.26,0,0,0-1.41-1.23c-1.32,0-2.64,0-4,0-1.06,0-1.53.48-1.53,1.55,0,1.75,0,3.5,0,5.26v3.54Z"/></svg>