<?xml version="1.0" encoding="utf-8"?>
<!-- Generator: Adobe Illustrator 24.0.2, SVG Export Plug-In . SVG Version: 6.00 Build 0)  -->
<svg version="1.1" id="Capa_1" xmlns="http://www.w3.org/2000/svg" xmlns:xlink="http://www.w3.org/1999/xlink" x="0px" y="0px"
	 viewBox="0 0 207.17 83.57" style="enable-background:new 0 0 207.17 83.57;" xml:space="preserve">
<style type="text/css">
	.st0{fill:#F5E9DE;}
	.st1{fill:#AF8251;}
	.st2{fill:#E6A564;}
	.st3{fill:#E6A665;}
	.st4{fill:#E8AC6E;}
</style>
<path class="st0" d="M74.78,52.32c0.02-0.3,0.04-0.61,0.06-0.91c0.68-3.75,1.35-7.51,2.03-11.26c-0.37,0.13-0.58,0.33-0.75,0.56
	c-0.93,1.22-1.79,2.49-2.78,3.66c-2.42,2.88-4.93,5.68-8.38,7.38c-3.06,1.51-5.02,1.06-7.13-1.55c0-0.08-0.02-0.14-0.06-0.21
	c-0.06-0.09-0.12-0.18-0.18-0.27c-0.15-0.44-0.31-0.87-0.46-1.31c-0.84-3.74-0.73-7.54-0.62-11.35c-0.23,0.29-0.4,0.58-0.53,0.89
	c-1.64,3.73-3.57,7.32-6.23,10.41c-1.63,1.9-3.47,3.66-5.44,5.21c-1.79,1.42-3.92,1.66-6,0.35c-0.09-0.07-0.17-0.15-0.26-0.22
	c-0.15-0.15-0.3-0.31-0.46-0.46c-2.5-3.35-2.52-7.24-2.25-11.11c0.41-5.92,2.38-11.28,6.31-15.82c4.25-4.92,9.34-5.9,15.14-2.94
	c0.54,0.28,1.07,0.57,1.7,0.9c1.14-2.2,3.12-2.58,5.28-2.49c0.32,0.01,0.62,0.27,0.93,0.41c-0.3,0.65-0.69,1.28-0.9,1.97
	c-1.53,4.89-2.17,9.93-2.25,15.03c-0.03,1.93,0.11,3.9,0.46,5.81c0.39,2.11,1.76,2.64,3.68,1.68c0.3-0.15,0.57-0.37,0.86-0.55
	c2.64-1.6,4.46-4.04,6.39-6.35c0.54-0.64,0.96-1.39,1.52-2.01c3.64-3.98,4.48-8.96,5.19-14.04c0.63-4.54,1.49-9.05,2.25-13.58
	c0.04-0.25,0.01-0.51,0.01-0.89c-2.26,0.54-4.54,1.17-6.37-0.79c-1.33-1.43-1.44-3.27-1.51-5.34c4.66,3.42,9.16,1.86,13.78,0.09
	c0,0.5,0,0.89,0,1.29c-0.34,1.84-0.68,3.68-1.02,5.52c-1.6,8.72-3.2,17.44-4.8,26.16c-0.14,0.79-0.26,1.59-0.39,2.35
	c2.36-4.15,4.7-8.27,7.04-12.39c1.31-1.16,2.5-2.5,3.95-3.43c2.16-1.39,4.46-1.49,6.61,0.2c1.75,2.11,2.1,4.68,2.26,7.26
	c0.19,3.23,0.1,6.49,0.29,9.72c0.11,1.96,0.38,3.95,0.86,5.85c0.39,1.53,1.4,1.73,2.73,0.85c0.28-0.19,0.51-0.45,0.76-0.68
	c1.36-1.59,2.89-3.06,4.06-4.79c2.01-2.97,4.02-5.98,5.59-9.19c1.21-2.47,1.77-5.26,1.11-8.31c1.86,0.34,3.88-0.73,5.37,1.14
	c0.01,0.64,0.13,1.31,0,1.92c-0.86,4.23-1.86,8.43-2.62,12.68c-0.41,2.32-0.63,4.7-0.58,7.05c0.05,2.85,1.98,3.77,4.34,2.31
	c1.24-1.23,2.69-2.3,3.69-3.7c3.9-5.49,7-11.42,9.07-17.84c0.43-1.35,0.4-2.84,0.59-4.27c0.03-0.21,0.08-0.47,0.21-0.6
	c0.72-0.65,3.88-0.78,4.66-0.2c0.21,0.16,0.36,0.39,0.53,0.59c-0.08,0.68-0.13,1.36-0.24,2.04c-0.77,4.71-1.71,9.39-2.27,14.13
	c-0.26,2.23-0.01,4.58,0.39,6.82c0.38,2.14,1.8,2.61,3.8,1.62c1.99-0.84,3.29-2.46,4.54-4.1c2.89-3.79,5.14-7.98,7.03-12.32
	c0.48-1.11,0.13-2.6,0.1-3.91c-0.01-0.36-0.24-0.71-0.4-1.14c0.49-0.23,0.93-0.44,1.36-0.65c1.07-0.15,2.13-0.3,3.2-0.46
	c0.31,0.23,0.63,0.47,0.94,0.7c0.09,0.83,0.33,1.68,0.23,2.49c-0.36,2.92-0.82,5.82-1.27,8.73c-0.33,2.13-0.69,4.25-1.04,6.42
	c2.26-4.16,4.48-8.25,6.69-12.33c1.73-2.08,3.33-4.3,5.23-6.21c1.12-1.12,2.65-1.92,4.12-2.57c1.35-0.6,2.78-0.32,3.96,0.7
	c0.26,0.88,0.84,1.81,0.72,2.64c-0.31,2.16-2.1,3.4-3.43,5.01c-0.41-0.51-0.68-0.87-0.96-1.22l0,0.02
	c-0.08-0.08-0.16-0.16-0.24-0.24l0.01,0.01c-0.08-0.08-0.16-0.16-0.24-0.24l0.01,0.01c-0.08-0.08-0.16-0.15-0.25-0.23l0,0
	c-0.55-0.09-1.09-0.18-1.64-0.27c-0.15,0.03-0.3,0.06-0.45,0.09c-0.1,0.06-0.2,0.11-0.3,0.17c-0.06-0.01-0.11,0-0.15,0.04
	c-0.09,0.06-0.19,0.13-0.28,0.19c-0.13,0.08-0.27,0.16-0.4,0.24c-0.08,0.08-0.17,0.15-0.25,0.23l0-0.03
	c-0.45,0.39-0.9,0.79-1.35,1.18l-0.01,0.01c-0.7,0.91-1.41,1.82-2.11,2.73c-0.15,0.23-0.3,0.46-0.45,0.69
	c-0.15,0.23-0.31,0.46-0.46,0.69c-0.07,0.07-0.14,0.14-0.21,0.22c-0.24,0.39-0.47,0.78-0.71,1.17c-0.07,0.06-0.14,0.12-0.21,0.18
	c-0.06,0.09-0.12,0.19-0.18,0.28c-0.09,0.22-0.18,0.45-0.27,0.67c-0.39,0.62-0.77,1.24-1.16,1.86c-1.38,2.84-2.85,5.65-4.11,8.55
	c-0.71,1.63-1.3,3.38-1.53,5.13c-0.17,1.28-0.67,1.83-1.77,2.12c-0.22,0.06-0.42,0.17-0.63,0.25c-0.69-0.14-1.37-0.27-2.06-0.41
	c-0.24-0.31-0.48-0.62-0.73-0.93c-0.06-0.15-0.12-0.31-0.18-0.46c-0.01-0.16-0.03-0.31-0.04-0.47c0.6-4.32,1.2-8.65,1.83-13.19
	c-1.31,2.1-2.42,4.02-3.67,5.84c-1.87,2.71-3.89,5.31-6.87,6.94c-2.89,1.58-5.01,1.27-7.32-1c-0.35-0.83-0.71-1.67-1.06-2.5
	c-0.92-3.82-0.89-7.69-0.68-11.6c-0.26,0.31-0.41,0.64-0.59,0.96c-1.82,3.31-3.45,6.75-5.54,9.87c-1.42,2.12-3.28,4.09-5.32,5.6
	c-2.65,1.97-4.92,2.02-7.32-0.52c-0.13-0.14-0.28-0.26-0.42-0.39c-0.37-0.69-0.74-1.39-1.11-2.08c-0.94-3.12-0.33-6.28-0.17-9.44
	c-0.37,0.33-0.6,0.67-0.83,1.01c-2.13,3.18-4.31,6.31-7.32,8.76c-2.09,1.71-4.95,2.59-7.34-0.33c-1.31-2.49-1.7-5.21-1.83-7.96
	c-0.13-2.86-0.17-5.72-0.25-8.58c-0.19-1.7-0.22-3.45-0.61-5.1c-0.54-2.26-1.95-2.76-3.68-1.24c-1.39,1.22-2.64,2.69-3.6,4.27
	c-3.62,5.93-6.41,12.27-8.8,18.79c-0.25,0.67-0.42,1.42-0.38,2.13c0.09,1.59,0.15,1.67-1.47,1.86c-0.77,0.09-1.57-0.1-2.36-0.17
	c-0.32-0.64-0.64-1.28-0.95-1.93C74.8,52.46,74.8,52.39,74.78,52.32z M44.49,48.67c0.45-0.34,0.97-0.62,1.35-1.03
	c4.57-4.94,7.67-10.84,10.81-16.7c1.19-1.66,1.2-1.67-0.44-2.76c-0.82-0.55-1.66-1.1-2.54-1.56c-4.39-2.32-7.52-1.45-10.06,2.8
	c-0.08,0.13-0.16,0.26-0.23,0.4c-2.72,4.92-3.43,10.23-2.97,15.75c0.07,0.8,0.43,1.64,0.84,2.35
	C41.95,49.12,43.22,49.36,44.49,48.67z"/>
<path class="st0" d="M5.46,46.11c0.64-0.72,1.27-1.44,1.91-2.16c0.18,0.34,0.49,0.68,0.52,1.03c0.13,1.98,0.51,3.88,1.62,5.55
	c2.84,4.3,9.33,4.57,12.81,0.55c2.54-2.94,2.9-6.11,0.65-9.48c-1.73-2.59-3.89-4.9-5.81-7.38c-1.63-2.11-3.5-4.12-4.72-6.45
	c-3.94-7.55,0.76-16.51,9.2-17.71c1.79-0.25,3.64-0.04,5.47-0.04c0.35,0.15,0.7,0.29,1.05,0.44c0.04,0.04,0.08,0.04,0.13,0.03
	c1.72,0.92,2.9,2.16,2.4,4.29c-0.23,0.95-0.62,1.87-0.94,2.8l0.01-0.01c-0.14,0.06-0.28,0.13-0.41,0.19l0.02,0.03
	c-0.31-0.47-0.63-0.94-0.94-1.42c-0.07-0.14-0.13-0.28-0.2-0.41c-0.36-0.48-0.65-1.04-1.09-1.42c-2.94-2.47-7.14-2.07-9.76,0.82
	c-2.09,2.31-2.87,7.53,0.21,10.06c0,0,0-0.01,0-0.01c0.08,0.1,0.16,0.2,0.23,0.31c2.11,2.35,4.28,4.65,6.3,7.07
	c1.76,2.11,3.28,4.44,3.96,7.13c1.34,5.3,0.05,9.96-3.94,13.72c-4.01,3.77-8.88,4.38-14.02,3.23c-2.48-0.56-3.89-2.55-5.12-4.62
	c-0.18-0.82-0.35-1.64-0.53-2.46c0-0.47-0.01-0.94-0.01-1.41C4.77,47.63,5.12,46.87,5.46,46.11z"/>
<path class="st0" d="M171.62,68.8c-0.33-1.57-0.24-3.1,0.44-4.61c5.35,2.15,9.13-0.53,12.46-4.14c1.54-1.67,2.74-3.68,4.05-5.56
	c0.22-0.32,0.44-0.81,0.37-1.15c-0.86-3.96-1.78-7.9-2.68-11.84c-1.32-4.94-3.38-9.57-6.12-13.88c-0.49-0.77-0.49-1.25,0.29-1.65
	c0.77-0.4,1.59-0.72,2.39-1.07c0.25,0,0.5-0.01,0.75-0.01c0.14,0.01,0.27,0.02,0.41,0.03c0.13,0.02,0.26,0.03,0.39,0.05
	c0.11,0.07,0.21,0.14,0.32,0.22c0.3,0.23,0.59,0.47,0.89,0.7c0.35,0.63,0.76,1.24,1.04,1.91c2.46,5.95,4.02,12.16,5.44,18.42
	c0.16,0.73,0.33,1.45,0.49,2.18c0.11,0.02,0.21,0.04,0.32,0.06c1.02-2.24,2.04-4.48,3.07-6.72c2.68-5.78,4.64-11.78,5.34-18.15
	c0.04-0.34,0.08-0.68,0.11-1.02c0.05-0.71,0.4-0.92,1.07-0.72c1.23,0.37,2.37,0.86,3.13,1.97c0.02,0.9,0.28,1.88,0.03,2.69
	c-0.97,3.05-1.95,6.12-3.22,9.06c-4.45,10.28-9.66,20.14-17.29,28.49c-2.43,2.66-5.1,5.08-8.65,6.21
	C174.56,70.62,172.76,70.79,171.62,68.8z"/>
<path class="st1" d="M99.92,81.7c0.51-1.52,1.01-3.03,1.52-4.54c1.73-5.07,3.51-10.12,5.16-15.22c0.48-1.49,1.55-1,2.5-1.11
	c0.88-0.1,1.27,0.31,1.55,1.13c2.12,6.27,4.29,12.52,6.44,18.78c0.1,0.28,0.14,0.58,0.2,0.86c-1.77,0.82-2.8,0.41-3.36-1.27
	c-0.45-1.34-0.93-2.67-1.34-4.03c-0.22-0.73-0.59-1.05-1.39-1.03c-1.76,0.05-3.52,0.04-5.28,0c-0.74-0.02-1.11,0.28-1.31,0.97
	c-0.38,1.28-0.84,2.54-1.26,3.82C102.68,82.11,102.27,82.32,99.92,81.7z M108.56,63.73c-0.84,2.59-1.58,4.9-2.33,7.22
	c-0.72,2.24-0.72,2.24,1.66,2.24c1.19,0,2.39,0,3.76,0C110.59,69.93,109.63,66.98,108.56,63.73z"/>
<path class="st1" d="M84.22,73.66c0,2.35-0.03,4.63,0.02,6.92c0.02,0.97-0.27,1.39-1.3,1.36c-1.42-0.05-1.47-0.03-1.47-1.47
	c0-5.89,0.03-11.78-0.03-17.68c-0.01-1.2,0.2-1.88,1.56-1.84c2.13,0.06,4.29-0.13,6.39,0.14c2.89,0.38,4.73,2.5,4.95,5.22
	c0.25,3.09-1.23,5.77-4.01,6.62c-1.65,0.51-3.44,0.51-5.18,0.73C84.89,73.69,84.63,73.66,84.22,73.66z M84.22,67.11
	c0,0.42,0,0.84,0,1.26c0,3.27,0.16,3.41,3.41,2.99c2.47-0.32,4.06-2.13,3.95-4.52c-0.11-2.33-1.7-3.72-4.31-3.76
	c-0.69-0.01-1.38,0.03-2.06,0.01c-0.75-0.03-1.02,0.32-0.99,1.04C84.25,65.12,84.22,66.12,84.22,67.11z"/>
<path class="st1" d="M70.09,63.73c-1.14-0.29-2.12-0.61-3.13-0.79c-2.11-0.36-3.97,0.51-4.55,2.03c-0.49,1.3-0.15,2.69,1.01,3.46
	c0.92,0.61,1.95,1.05,2.94,1.54c0.72,0.36,1.47,0.66,2.17,1.03c2.38,1.26,3.37,3.28,3.03,5.9c-0.31,2.44-1.75,4.01-4.08,4.76
	c-2.55,0.83-5.05,0.56-7.53-0.34c-0.75-0.27-1.09-0.64-0.74-1.45c0.16-0.38,0.26-0.78,0.39-1.17c1.38,0.37,2.68,0.86,4.02,1.04
	c0.95,0.13,1.99-0.01,2.92-0.27c1.37-0.39,2.14-1.45,2.27-2.88c0.13-1.49-0.56-2.61-1.81-3.34c-0.89-0.52-1.88-0.85-2.8-1.31
	c-0.92-0.46-1.87-0.9-2.7-1.49c-2.88-2.06-2.84-6.57,0.12-8.54c2.67-1.78,5.56-1.68,8.46-0.6c0.26,0.1,0.5,0.64,0.48,0.96
	C70.54,62.74,70.27,63.2,70.09,63.73z"/>
<path class="st0" d="M148.7,71.85c-6.82,0-13.64,0-20.45,0c-0.34,0-0.72,0.06-1.02-0.05c-0.21-0.08-0.43-0.43-0.43-0.65
	c0-0.22,0.24-0.54,0.45-0.63c0.26-0.11,0.6-0.05,0.91-0.05c13.75,0,27.5,0,41.25,0c0.31,0,0.64-0.06,0.91,0.04
	c0.22,0.09,0.5,0.41,0.48,0.6c-0.03,0.26-0.27,0.59-0.51,0.69c-0.29,0.12-0.68,0.05-1.02,0.05
	C162.41,71.85,155.55,71.84,148.7,71.85z"/>
<path class="st0" d="M28.17,70.46c6.2,0,12.4,0,18.59,0c0.34,0,0.73-0.08,1.02,0.05c0.24,0.1,0.48,0.44,0.51,0.7
	c0.02,0.19-0.26,0.49-0.48,0.6c-0.22,0.11-0.52,0.04-0.79,0.04c-12.59,0-25.17,0-37.76-0.01c-0.27,0-0.59,0.08-0.79-0.04
	c-0.24-0.14-0.49-0.44-0.52-0.69c-0.02-0.19,0.26-0.52,0.48-0.6c0.31-0.11,0.68-0.05,1.02-0.05C15.7,70.46,21.94,70.46,28.17,70.46
	C28.17,70.46,28.17,70.46,28.17,70.46z"/>
<path class="st2" d="M28.15,10.47c-0.35-0.15-0.7-0.29-1.05-0.44C27.46,10.18,27.81,10.33,28.15,10.47z"/>
<path class="st2" d="M152.5,52.99c0.06,0.15,0.12,0.31,0.18,0.46C152.62,53.3,152.56,53.14,152.5,52.99z"/>
<path class="st3" d="M183.96,24.92c-0.14-0.01-0.27-0.02-0.41-0.03C183.69,24.9,183.82,24.91,183.96,24.92z"/>
<path class="st3" d="M184.66,25.19c-0.11-0.07-0.21-0.14-0.32-0.22C184.45,25.04,184.56,25.11,184.66,25.19z"/>
<path class="st2" d="M74.78,52.32c0.02,0.07,0.02,0.14,0,0.21c-0.01-0.05-0.03-0.09-0.04-0.14C74.74,52.36,74.77,52.34,74.78,52.32z
	"/>
<path class="st2" d="M57.58,49.71c0.06,0.09,0.12,0.18,0.18,0.27C57.7,49.9,57.64,49.8,57.58,49.71z"/>
<path class="st3" d="M170.63,29.06c-0.45,0.39-0.9,0.79-1.35,1.18C169.73,29.85,170.18,29.46,170.63,29.06z"/>
<path class="st3" d="M174.1,28.4c-0.55-0.09-1.09-0.18-1.64-0.27C173.01,28.22,173.55,28.31,174.1,28.4z"/>
<path class="st3" d="M166.04,34.58c-0.24,0.39-0.47,0.78-0.71,1.17C165.57,35.36,165.8,34.97,166.04,34.58z"/>
<path class="st3" d="M166.71,33.68c-0.15,0.23-0.31,0.46-0.46,0.69C166.4,34.14,166.56,33.91,166.71,33.68z"/>
<path class="st4" d="M38.3,53.91c-0.09-0.07-0.17-0.15-0.26-0.22C38.13,53.76,38.21,53.83,38.3,53.91z"/>
<path class="st3" d="M172.01,28.22c-0.1,0.06-0.2,0.11-0.3,0.17C171.81,28.33,171.91,28.28,172.01,28.22z"/>
<path class="st3" d="M171.56,28.43c-0.09,0.06-0.19,0.13-0.28,0.19C171.37,28.56,171.46,28.49,171.56,28.43z"/>
<path class="st3" d="M174.34,28.63c-0.08-0.08-0.17-0.15-0.25-0.23C174.18,28.48,174.26,28.55,174.34,28.63z"/>
<path class="st3" d="M174.58,28.86c-0.08-0.08-0.16-0.16-0.24-0.24C174.41,28.7,174.49,28.78,174.58,28.86z"/>
<path class="st3" d="M170.87,28.86c-0.08,0.08-0.17,0.15-0.25,0.23C170.71,29.01,170.79,28.94,170.87,28.86z"/>
<path class="st3" d="M165.12,35.93c-0.06,0.09-0.12,0.19-0.18,0.28C165,36.12,165.06,36.02,165.12,35.93z"/>
<path class="st3" d="M174.8,29.09c-0.08-0.08-0.16-0.16-0.24-0.24C174.64,28.93,174.72,29.01,174.8,29.09z"/>
<path class="st2" d="M29.35,17.81c-0.31-0.47-0.63-0.94-0.94-1.42C28.72,16.86,29.04,17.33,29.35,17.81z"/>
<path class="st2" d="M17.57,25.42c0.08,0.1,0.16,0.2,0.23,0.31C17.72,25.63,17.65,25.52,17.57,25.42z"/>
</svg>
