<svg id="Capa_1" data-name="Capa 1" xmlns="http://www.w3.org/2000/svg" xmlns:xlink="http://www.w3.org/1999/xlink" viewBox="0 0 106.21 33.36"><defs><style>.cls-1{fill:none;}.cls-2{clip-path:url(#clip-path);}.cls-3{fill:#fff;}</style><clipPath id="clip-path" transform="translate(-0.45)"><rect class="cls-1" width="106.66" height="23.45"/></clipPath></defs><title>marketicons</title><g class="cls-2"><path class="cls-3" d="M98.72,19.32a4.38,4.38,0,0,1-3.26.48,10.36,10.36,0,0,0-.71,4.86c-.47-.83-.41-1.66.25-4.56-2.3-2.48-3.73-5.22-3.53-8.7.23-3.89,1.27-6.41,2.8-9.88.29,1.17.55,2.26.83,3.34S95.68,7,96,8l3.73-5.18c.18.25.24.32.23.33-.84,1.26-.84,2.71-1.12,4.1-.31,1.56-.68,3.11-1,4.76,1.73-1.55,3.54-3,4.58-5.19-.27,2.22-.11,4.45-1.47,6.43l.17.15,1-.44V13c-.81.48-1.62,1-2.41,1.44a7.73,7.73,0,0,0-3.35,3.68l.76-.68.15.35-.79,1,1.45-.4-2,1,.1.35,2.71-.58ZM97.57,10.4h.34c.33-1.66.65-3.32,1-5h-.22l-.27.84c-.87-.34-.55.49-.77.79l.11-1.12a6.84,6.84,0,0,0-.69,1A5.71,5.71,0,0,0,96.19,9a15.18,15.18,0,0,0,.47,3.14c0,.06.16.08.25.12s.35,0,.36-.09C97.37,11.52,97.47,11,97.57,10.4Zm2,3.54a1.2,1.2,0,0,0,.54-.07A6.49,6.49,0,0,0,101.47,11c-.34.5-.58,1.06-.89,1.57a16.31,16.31,0,0,1-1,1.43,17.37,17.37,0,0,0,2.23-4.9L101.57,9l-1,2h-.08l.23-1.4c-1,1-2.11,1.95-3.1,3a5.72,5.72,0,0,0-1.05,1.65,5.53,5.53,0,0,0-.25,1.56v.69l1.25-1.94h0l-1.74,3.62c.46-.51.76-1.13,1.18-1.65a15.41,15.41,0,0,1,1.56-1.57C98.88,14.59,99.24,14.27,99.57,13.94Zm-5.43-9.5-.26-.23-.24,1.12-.33-.76a2.77,2.77,0,0,0-.22.46,7,7,0,0,0-.37,1c-.86,3.52-2,7.06.34,10.33.52.73,1,1.53,1.45,2.3.47.45.52-.08.7-.33l.13.37c1.54-3.91.94-12-1.19-15.75Z" transform="translate(-0.45)"/><path class="cls-3" d="M102,13c1.11-.94,2.25-1.8,3.33-2.8a11.51,11.51,0,0,0,1.2-1.49s.1.08.09.11c-1,3.56-2.27,6.93-5.49,9.17-.77.53-1.63.92-2.44,1.38l0-.12c1.13-.77,2.31-1.49,3.39-2.34a11.5,11.5,0,0,0,3.07-4.4,4.75,4.75,0,0,0-.57.69c-1,1.3-1.78,2.81-3.23,3.73l1.43-1.63-.1-.09-.88.45c.23-.21.46-.43.7-.62a7.79,7.79,0,0,0,2.61-3.63l-.31.16.17-.37L102.07,13Z" transform="translate(-0.45)"/><path class="cls-3" d="M5.38,13.33a2.06,2.06,0,0,0,.35.12,10.06,10.06,0,0,0-3.6-6.06c-.11-.11-.45,0-.68.07C1.15,5.08.84,2.7.45,0A5.78,5.78,0,0,1,1.57.54a45.47,45.47,0,0,1,10,16.53c.58,1.73.8,3.63-.36,5.26.06-1.08.12-2.16.19-3.34-2.91,2.51-3.06,3-1.8,5.39l1.62-2.13c0,.26.06.63-.08.77-1.89,1.8-1,3.72-.11,5.71.7,1.46,1.31,3,2,4.47l-.42.16L9.29,25.49c-2.46-.1-3.55-1.25-4.5-4A117.59,117.59,0,0,1,1.79,10a18.65,18.65,0,0,1-.27-2.58A9.21,9.21,0,0,0,5.38,13.33Zm2.39,5c.66-2.64,3.2-4.74.42-7.41-1.85,2.17-1.78,4.55-.42,7.36Zm2.07-3.76c-.66,2.2-2.5,3.92-1.5,6.7,2.23-2,3.71-3.55,1.5-6.75ZM2.94,12c-.08,2.81.13,3.14,3.84,6C7,14.93,4.93,13.47,2.94,12Zm1.77,7.78c.35,2.82,2.17,5,4.13,5C8.77,21.88,6.83,20.79,4.71,19.76ZM6.28,13c1.77-2.41,1.66-3.53-.56-6C4.49,9.15,5.47,11,6.28,13ZM3.81,16.15c-.38,3.06,2,3.44,3.9,4.89C7.21,18.4,5.21,17.67,3.81,16.15Zm.45-7.5C3.32,6.29,2.57,4.38,1.8,2.46.94,5,1.86,6.83,4.26,8.64Zm-.78-3.5c.38,1,.69,1.89,1.09,2.94.88-2.22.14-4-2.51-6C2.57,3.26,3.08,4.21,3.48,5.15Z" transform="translate(-0.45)"/></g></svg>