<svg id="Capa_1" data-name="Capa 1" xmlns="http://www.w3.org/2000/svg" viewBox="0 0 37.49 34.47"><defs><style>.cls-1{fill:#ede4e4;}</style></defs><title>spa-icon</title><path class="cls-1" d="M27.48,13.18c1.94,0,3.77,0,5.59,0a4.22,4.22,0,0,1,4,2.53,4.21,4.21,0,0,1-.55,4.61l-.88,1.14a4.31,4.31,0,0,1,1.82,3,4.45,4.45,0,0,1-1.09,3.57c.37.18.84.26,1,.53s.1.75.11,1.14,0,.68,0,1c0,1.11,0,1.13-1.26,1.27,0,.5,0,1,0,1.55s-.24.83-.86.91c-1.8.23-3.22-.09-3.72-2.11A.62.62,0,0,0,31.2,32c-1.21,0-2.43,0-3.72,0v1.16c0,1.31,0,1.34-1.37,1.34H6.18c-.93,0-1.86,0-2.78,0a.93.93,0,0,1-1-.64c-.06-.16-.16-.3-.22-.46C1.78,32.4,1.34,31.54,0,32V30.75H3.87L4,30.53a3.54,3.54,0,0,1-.51-.35,6.85,6.85,0,0,1-2-7.15A1.22,1.22,0,0,1,3,22c.44,0,.87.05,1.37.08a5.14,5.14,0,0,0,.16-.51,7,7,0,0,1,2.77-4.17,1.13,1.13,0,0,1,1.63,0c.29.26.61.49,1,.8,0-.26,0-.46,0-.65,0-1.93,0-3.86,0-5.79,0-.65.21-1,.89-1.07,2.23-.31,4.44-.66,6.66-1,.21,0,.4-.25.6-.37-.14-.21-.24-.52-.44-.61a3.24,3.24,0,0,1-2-3.95A9.7,9.7,0,0,1,18.17.35a.63.63,0,0,1,1,0,8.5,8.5,0,0,1,2.61,5,3,3,0,0,1-2,3.29,3.24,3.24,0,0,0-.53.46l.14.23,4.09-.61,3-.48c.66-.1.95.13,1,.83C27.49,10.4,27.48,11.74,27.48,13.18Zm-8.83,15a4.5,4.5,0,0,1,2.53-7.47c0-.06-.06-.14-.1-.19a4.24,4.24,0,0,1-.65-4.85,4.34,4.34,0,0,1,4.31-2.46h1.43V9.56l-14.95,2.3c0,2.34,0,4.61,0,6.87A30.83,30.83,0,0,0,11.66,22c.63,0,1.09,0,1.55-.07A1.23,1.23,0,0,1,14.66,23a6.83,6.83,0,0,1-2,7.14,2.8,2.8,0,0,1-.53.33l.16.24h3.86V31.9c-1.63.14-1.75.22-1.9,1.31h4.1a2,2,0,0,0,.31,0V32c-1.21-.18-1.21-.18-1.21-1.44,0-.36,0-.73,0-1.1C17.46,28.33,17.48,28.31,18.65,28.15ZM32.54,22c.13.27.25.48.34.71a3.08,3.08,0,0,1-2.56,4.21c-2.26.1-4.54.05-6.81,0a1.79,1.79,0,0,1-1.67-1.74,1.76,1.76,0,0,1,1.47-1.9c1.57-.08,3.15,0,4.73,0v1.19c-1.43,0-2.8,0-4.16,0a1,1,0,0,0-.74.58c-.11.44.28.64.69.64,2.07,0,4.15,0,6.22,0a1.82,1.82,0,0,0,1.79-1.93A1.85,1.85,0,0,0,30,22c-2.76,0-5.51,0-8.27,0a3,3,0,0,0-2.84,2.17,3.14,3.14,0,0,0,3.19,4.07c3.62,0,7.23,0,10.84,0A3.8,3.8,0,0,0,34.18,28a3.07,3.07,0,0,0,2-3.58A3.18,3.18,0,0,0,32.54,22ZM29.3,17H25.16c-.45,0-.8.13-.79.63s.34.6.76.6c2.05,0,4.1,0,6.15,0a1.85,1.85,0,0,0,0-3.7c-2.34,0-4.69,0-7,0a3.09,3.09,0,0,0-3,3A3,3,0,0,0,24,20.65c3.1.07,6.2.05,9.3,0a2.91,2.91,0,0,0,2.72-2.19,2.93,2.93,0,0,0-2.13-3.77c.08.19.14.36.21.54a3.08,3.08,0,0,1-2.68,4.19c-2.19.1-4.39,0-6.59,0a1.83,1.83,0,0,1-1.77-1.73,1.74,1.74,0,0,1,1.57-2c1.53-.09,3.06,0,4.63,0ZM13.75,25.05a7.58,7.58,0,0,0-.24-1.36.8.8,0,0,0-.58-.45,5.62,5.62,0,0,0-5.3,7,.56.56,0,0,0,.67.47A5.74,5.74,0,0,0,13.75,25.05ZM36.17,29.5H18.78v1.16H36.17ZM7.3,25.12a5.37,5.37,0,0,0-4-1.88.79.79,0,0,0-.61.41,5.51,5.51,0,0,0,3.7,6.72A7,7,0,0,1,7.3,25.12Zm.77-6.8a5.56,5.56,0,0,0-2.36,3.55.8.8,0,0,0,.19.67c.72.52,1.49,1,2.19,1.41.71-.45,1.43-.89,2.12-1.39a.76.76,0,0,0,.25-.64A5.51,5.51,0,0,0,8.07,18.32Zm10.06-12h1.16l.09,1a1.86,1.86,0,0,0,1.2-2,7.35,7.35,0,0,0-1.87-3.79,7.45,7.45,0,0,0-1.86,3.74,1.68,1.68,0,0,0,1.22,2ZM13.2,32H2.94c.42,1.23.42,1.23,1.62,1.23h7.16C12.84,33.22,12.87,33.19,13.2,32ZM23,33.17h3.18V32H24.44C23.34,32,23.34,32,23,33.17Zm12-1.22h-2c.47,1.36.62,1.45,2,1.17ZM20,33.16c1.51.15,1.79,0,1.88-1.16H20Z" transform="translate(0 -0.06)"/><path class="cls-1" d="M13.66,18.16H12.5V13.23h1.16Z" transform="translate(0 -0.06)"/><path class="cls-1" d="M13.67,20.65H12.49V19.5h1.18Z" transform="translate(0 -0.06)"/></svg>