<svg id="Capa_1" data-name="Capa 1" xmlns="http://www.w3.org/2000/svg" xmlns:xlink="http://www.w3.org/1999/xlink" viewBox="0 0 112.15 33.36"><defs><style>.cls-1{fill:none;}.cls-2{fill:#936337;opacity:0.9;}.cls-3{clip-path:url(#clip-path);}.cls-4{fill:#fff;}</style><clipPath id="clip-path" transform="translate(0 4.15)"><polygon class="cls-1" points="112.15 17.05 0 17.05 5.66 0 106.49 0 112.15 17.05"/></clipPath></defs><title>title-view</title><polygon class="cls-2" points="112.15 21.2 0 21.2 5.66 4.15 106.48 4.15 112.15 21.2"/><g class="cls-3"><path class="cls-4" d="M102.15,15.17a4.38,4.38,0,0,1-3.26.48,10.46,10.46,0,0,0-.71,4.86c-.47-.83-.41-1.66.25-4.56-2.3-2.48-3.73-5.22-3.53-8.7.23-3.89,1.27-6.41,2.8-9.88.29,1.17.55,2.26.83,3.34s.58,2.13.85,3.13l3.73-5.18c.18.25.24.32.23.33-.84,1.26-.84,2.71-1.12,4.1-.31,1.56-.68,3.11-1,4.76,1.73-1.55,3.54-3,4.58-5.19-.27,2.22-.11,4.45-1.47,6.43l.17.15,1-.44,0,.08c-.81.48-1.62.95-2.41,1.44A7.74,7.74,0,0,0,99.74,14l.76-.68.15.35-.79,1,1.45-.4-2,1,.1.35,2.71-.58ZM101,6.25c.12,0,.33,0,.34,0,.33-1.66.65-3.32,1-5l-.22,0-.27.84c-.87-.34-.55.49-.77.79l.11-1.12a7.78,7.78,0,0,0-.69,1,5.74,5.74,0,0,0-.88,2.08,15.38,15.38,0,0,0,.47,3.14c0,.06.16.08.25.12s.35,0,.36-.09C100.8,7.37,100.9,6.81,101,6.25Zm2,3.54c.18,0,.46,0,.54-.07a6.48,6.48,0,0,0,1.36-2.92c-.34.5-.58,1.06-.89,1.57s-.67,1-1,1.43a17.2,17.2,0,0,0,2.23-4.9L105,4.82l-1,2-.08,0,.23-1.4c-1,1-2.11,1.95-3.1,3A5.85,5.85,0,0,0,100,10.07a5.72,5.72,0,0,0-.25,1.56c0,.2,0,.4,0,.69L101,10.38l0,0L99.26,14c.46-.51.76-1.13,1.18-1.65A16.88,16.88,0,0,1,102,10.78C102.31,10.44,102.67,10.12,103,9.79ZM97.57.29,97.31.06l-.24,1.12L96.74.42a4.1,4.1,0,0,0-.22.46,7.69,7.69,0,0,0-.37,1c-.86,3.52-2,7.06.34,10.33.52.73,1,1.53,1.45,2.3.47.45.52-.08.7-.33l.13.37c1.54-3.91.94-12-1.19-15.75Z" transform="translate(0 4.15)"/><path class="cls-4" d="M105.47,8.8C106.58,7.86,107.72,7,108.8,6A11.3,11.3,0,0,0,110,4.51s.1.08.09.11c-1,3.56-2.27,6.93-5.49,9.17-.77.53-1.63.92-2.44,1.38l-.05-.12c1.13-.77,2.31-1.49,3.39-2.34a11.5,11.5,0,0,0,3.07-4.4A4.8,4.8,0,0,0,108,9c-1,1.3-1.78,2.81-3.23,3.73l1.43-1.63-.1-.09-.88.45c.23-.21.46-.43.7-.62a7.75,7.75,0,0,0,2.61-3.63l-.31.16.17-.37L105.5,8.88Z" transform="translate(0 4.15)"/><path class="cls-4" d="M8.81,9.18a1.91,1.91,0,0,0,.35.12,10,10,0,0,0-3.6-6.06c-.11-.11-.45,0-.68.07-.3-2.38-.61-4.76-1-7.46A5.44,5.44,0,0,1,5-3.61,45.31,45.31,0,0,1,15,12.92c.58,1.73.8,3.63-.36,5.26.06-1.08.12-2.16.19-3.34-2.91,2.51-3.06,3-1.8,5.39l1.62-2.13c0,.26.06.63-.08.77-1.89,1.8-1,3.72-.11,5.71.7,1.46,1.31,3,2,4.47l-.42.16-3.32-7.87c-2.46-.1-3.55-1.25-4.5-4a118.83,118.83,0,0,1-3-11.53,20.14,20.14,0,0,1-.27-2.58A9.23,9.23,0,0,0,8.81,9.18Zm2.39,5c.66-2.64,3.2-4.74.42-7.41C9.77,8.94,9.84,11.32,11.2,14.13Zm2.07-3.76c-.66,2.2-2.5,3.92-1.5,6.7C14,15.09,15.48,13.57,13.27,10.37ZM6.37,7.83c-.08,2.81.13,3.14,3.84,6C10.39,10.78,8.36,9.32,6.37,7.83Zm1.77,7.78c.35,2.82,2.17,5,4.13,5C12.2,17.73,10.26,16.64,8.14,15.61Zm1.57-6.8c1.77-2.41,1.66-3.53-.56-6C7.92,5,8.9,6.84,9.71,8.81ZM7.24,12c-.38,3.06,2,3.44,3.9,4.89C10.64,14.25,8.64,13.52,7.24,12Zm.45-7.5C6.75,2.14,6,.23,5.23-1.69,4.37.82,5.29,2.68,7.69,4.49ZM6.91,1C7.29,2,7.6,2.89,8,3.94c.88-2.22.14-4-2.51-6C6-.89,6.51.06,6.91,1Z" transform="translate(0 4.15)"/></g></svg>